<mxfile host="app.diagrams.net" modified="2020-11-13T14:15:22.528Z" agent="5.0 (Windows NT 10.0; Win64; x64) AppleWebKit/537.36 (KHTML, like Gecko) Chrome/86.0.4240.111 Safari/537.36" etag="aU62_L8rS1vRsdjgprCr" version="13.9.7" type="github">
  <diagram name="Page-1" id="74e2e168-ea6b-b213-b513-2b3c1d86103e">
    <mxGraphModel dx="1185" dy="635" grid="0" gridSize="10" guides="1" tooltips="1" connect="1" arrows="1" fold="1" page="1" pageScale="1" pageWidth="1100" pageHeight="850" background="#ffffff" math="0" shadow="0">
      <root>
        <mxCell id="0" />
        <mxCell id="1" parent="0" />
        <mxCell id="77e6c97f196da883-1" value="CURRENT WORK FLOW&amp;nbsp;" style="swimlane;html=1;childLayout=stackLayout;startSize=27;rounded=0;shadow=0;labelBackgroundColor=none;strokeWidth=1;fontFamily=Verdana;fontSize=22;align=center;" parent="1" vertex="1">
          <mxGeometry x="26" y="40" width="1004" height="750" as="geometry" />
        </mxCell>
        <mxCell id="77e6c97f196da883-2" value="Packing" style="swimlane;html=1;startSize=43;fontSize=20;align=center;" parent="77e6c97f196da883-1" vertex="1">
          <mxGeometry y="27" width="160" height="723" as="geometry" />
        </mxCell>
        <mxCell id="77e6c97f196da883-8" value="Packing instruct&amp;nbsp;" style="rounded=1;whiteSpace=wrap;html=1;shadow=0;labelBackgroundColor=none;strokeWidth=1;fontFamily=Verdana;fontSize=16;align=center;fontStyle=0" parent="77e6c97f196da883-2" vertex="1">
          <mxGeometry x="20" y="65" width="100" height="60" as="geometry" />
        </mxCell>
        <mxCell id="e00w-yxAYKYn5aTXczRn-8" style="edgeStyle=orthogonalEdgeStyle;rounded=0;orthogonalLoop=1;jettySize=auto;html=1;entryX=0.5;entryY=1;entryDx=0;entryDy=0;dashed=1;startArrow=none;startFill=0;endArrow=classicThin;endFill=1;fontSize=16;" edge="1" parent="77e6c97f196da883-2" source="e00w-yxAYKYn5aTXczRn-7" target="77e6c97f196da883-8">
          <mxGeometry relative="1" as="geometry" />
        </mxCell>
        <mxCell id="e00w-yxAYKYn5aTXczRn-7" value="Packing addon" style="shape=cylinder3;whiteSpace=wrap;html=1;boundedLbl=1;backgroundOutline=1;size=15;fontSize=16;align=center;fillColor=#dae8fc;strokeColor=#6c8ebf;" vertex="1" parent="77e6c97f196da883-2">
          <mxGeometry x="18.5" y="175" width="103" height="70" as="geometry" />
        </mxCell>
        <mxCell id="e00w-yxAYKYn5aTXczRn-4" value="Notebook pallet no" style="shape=document;whiteSpace=wrap;html=1;boundedLbl=1;fontSize=16;align=center;fillColor=#fff2cc;strokeColor=#d6b656;" vertex="1" parent="77e6c97f196da883-2">
          <mxGeometry x="14" y="284" width="120" height="80" as="geometry" />
        </mxCell>
        <mxCell id="77e6c97f196da883-26" style="edgeStyle=orthogonalEdgeStyle;rounded=1;html=1;labelBackgroundColor=none;startArrow=none;startFill=0;startSize=5;endArrow=classicThin;endFill=1;endSize=5;jettySize=auto;orthogonalLoop=1;strokeWidth=1;fontFamily=Verdana;fontSize=8" parent="77e6c97f196da883-1" source="77e6c97f196da883-8" target="77e6c97f196da883-11" edge="1">
          <mxGeometry relative="1" as="geometry" />
        </mxCell>
        <mxCell id="77e6c97f196da883-28" style="edgeStyle=orthogonalEdgeStyle;rounded=1;html=1;labelBackgroundColor=none;startArrow=blockThin;startFill=1;endArrow=classicThin;endFill=1;jettySize=auto;orthogonalLoop=1;strokeWidth=1;fontFamily=Verdana;fontSize=8;entryX=0;entryY=0.5;entryDx=0;entryDy=0;entryPerimeter=0;dashed=1;" parent="77e6c97f196da883-1" source="77e6c97f196da883-9" target="e00w-yxAYKYn5aTXczRn-6" edge="1">
          <mxGeometry relative="1" as="geometry">
            <mxPoint x="350" y="212.0000000000001" as="targetPoint" />
          </mxGeometry>
        </mxCell>
        <mxCell id="77e6c97f196da883-3" value="Worker packing" style="swimlane;html=1;startSize=43;fontSize=20;" parent="77e6c97f196da883-1" vertex="1">
          <mxGeometry x="160" y="27" width="160" height="723" as="geometry" />
        </mxCell>
        <mxCell id="e00w-yxAYKYn5aTXczRn-12" value="" style="shape=cube;whiteSpace=wrap;html=1;boundedLbl=1;backgroundOutline=1;darkOpacity=0.05;darkOpacity2=0.1;labelBackgroundColor=none;fontSize=16;align=center;" vertex="1" parent="77e6c97f196da883-3">
          <mxGeometry x="3" y="412" width="137" height="95" as="geometry" />
        </mxCell>
        <mxCell id="77e6c97f196da883-11" value="Check pallet no in notebook" style="rounded=1;whiteSpace=wrap;html=1;shadow=0;labelBackgroundColor=none;strokeWidth=1;fontFamily=Verdana;fontSize=16;align=center;fontStyle=0" parent="77e6c97f196da883-3" vertex="1">
          <mxGeometry x="30" y="65" width="100" height="60" as="geometry" />
        </mxCell>
        <mxCell id="e00w-yxAYKYn5aTXczRn-1" style="edgeStyle=orthogonalEdgeStyle;rounded=0;orthogonalLoop=1;jettySize=auto;html=1;exitX=0.5;exitY=1;exitDx=0;exitDy=0;entryX=0.5;entryY=0;entryDx=0;entryDy=0;fontSize=22;" edge="1" parent="77e6c97f196da883-3" source="77e6c97f196da883-9" target="77e6c97f196da883-10">
          <mxGeometry relative="1" as="geometry" />
        </mxCell>
        <mxCell id="77e6c97f196da883-9" value="Print pallet" style="rounded=1;whiteSpace=wrap;html=1;shadow=0;labelBackgroundColor=none;strokeWidth=1;fontFamily=Verdana;fontSize=16;align=center;fontStyle=0" parent="77e6c97f196da883-3" vertex="1">
          <mxGeometry x="26" y="176" width="100" height="60" as="geometry" />
        </mxCell>
        <mxCell id="77e6c97f196da883-27" style="edgeStyle=orthogonalEdgeStyle;rounded=1;html=1;labelBackgroundColor=none;startArrow=none;startFill=0;startSize=5;endArrow=classicThin;endFill=1;endSize=5;jettySize=auto;orthogonalLoop=1;strokeWidth=1;fontFamily=Verdana;fontSize=8" parent="77e6c97f196da883-3" source="77e6c97f196da883-11" target="77e6c97f196da883-9" edge="1">
          <mxGeometry relative="1" as="geometry">
            <Array as="points">
              <mxPoint x="80" y="152" />
              <mxPoint x="80" y="152" />
            </Array>
          </mxGeometry>
        </mxCell>
        <mxCell id="e00w-yxAYKYn5aTXczRn-3" style="edgeStyle=orthogonalEdgeStyle;rounded=0;orthogonalLoop=1;jettySize=auto;html=1;exitX=0.5;exitY=1;exitDx=0;exitDy=0;fontSize=16;" edge="1" parent="77e6c97f196da883-3" source="77e6c97f196da883-10" target="e00w-yxAYKYn5aTXczRn-2">
          <mxGeometry relative="1" as="geometry" />
        </mxCell>
        <mxCell id="77e6c97f196da883-10" value="Write pallet no to pallet mark" style="rounded=1;whiteSpace=wrap;html=1;shadow=0;labelBackgroundColor=none;strokeWidth=1;fontFamily=Verdana;fontSize=16;align=center;" parent="77e6c97f196da883-3" vertex="1">
          <mxGeometry x="26" y="312" width="100" height="60" as="geometry" />
        </mxCell>
        <mxCell id="e00w-yxAYKYn5aTXczRn-2" value="Stick pallet mark&amp;nbsp;" style="rounded=1;whiteSpace=wrap;html=1;shadow=0;labelBackgroundColor=none;strokeWidth=1;fontFamily=Verdana;fontSize=16;align=center;" vertex="1" parent="77e6c97f196da883-3">
          <mxGeometry x="26" y="438" width="100" height="60" as="geometry" />
        </mxCell>
        <mxCell id="77e6c97f196da883-4" value="" style="swimlane;html=1;startSize=44;fontSize=20;" parent="77e6c97f196da883-1" vertex="1">
          <mxGeometry x="320" y="27" width="160" height="723" as="geometry" />
        </mxCell>
        <mxCell id="e00w-yxAYKYn5aTXczRn-6" value="CIGMA" style="shape=cylinder3;whiteSpace=wrap;html=1;boundedLbl=1;backgroundOutline=1;size=15;fontSize=16;align=center;labelBackgroundColor=none;fillColor=#dae8fc;strokeColor=#6c8ebf;" vertex="1" parent="77e6c97f196da883-4">
          <mxGeometry x="33" y="172" width="103" height="68" as="geometry" />
        </mxCell>
        <mxCell id="77e6c97f196da883-5" value="PC" style="swimlane;html=1;startSize=44;fontSize=20;" parent="77e6c97f196da883-1" vertex="1">
          <mxGeometry x="480" y="27" width="160" height="723" as="geometry" />
        </mxCell>
        <mxCell id="e00w-yxAYKYn5aTXczRn-11" value="Shipping instruct" style="shape=document;whiteSpace=wrap;html=1;boundedLbl=1;fontSize=16;align=center;fillColor=#fff2cc;strokeColor=#d6b656;" vertex="1" parent="77e6c97f196da883-5">
          <mxGeometry x="19.5" y="55" width="120" height="80" as="geometry" />
        </mxCell>
        <mxCell id="e00w-yxAYKYn5aTXczRn-15" style="edgeStyle=orthogonalEdgeStyle;rounded=0;orthogonalLoop=1;jettySize=auto;html=1;exitX=1;exitY=0.5;exitDx=0;exitDy=0;startArrow=none;startFill=0;endArrow=classicThin;endFill=1;fontSize=16;dashed=1;" edge="1" parent="77e6c97f196da883-1" source="e00w-yxAYKYn5aTXczRn-11" target="e00w-yxAYKYn5aTXczRn-14">
          <mxGeometry relative="1" as="geometry" />
        </mxCell>
        <mxCell id="77e6c97f196da883-6" value="Shipping area" style="swimlane;html=1;startSize=44;fontSize=20;" parent="77e6c97f196da883-1" vertex="1">
          <mxGeometry x="640" y="27" width="160" height="723" as="geometry" />
        </mxCell>
        <mxCell id="e00w-yxAYKYn5aTXczRn-13" value="" style="shape=cube;whiteSpace=wrap;html=1;boundedLbl=1;backgroundOutline=1;darkOpacity=0.05;darkOpacity2=0.1;labelBackgroundColor=none;fontSize=16;align=center;" vertex="1" parent="77e6c97f196da883-6">
          <mxGeometry x="8" y="413" width="137" height="95" as="geometry" />
        </mxCell>
        <mxCell id="e00w-yxAYKYn5aTXczRn-9" value="Store to shipping area" style="rounded=1;whiteSpace=wrap;html=1;shadow=0;labelBackgroundColor=none;strokeWidth=1;fontFamily=Verdana;fontSize=16;align=center;" vertex="1" parent="77e6c97f196da883-6">
          <mxGeometry x="40" y="436" width="100" height="60" as="geometry" />
        </mxCell>
        <mxCell id="77e6c97f196da883-7" value="LOG" style="swimlane;html=1;startSize=44;fontSize=20;" parent="77e6c97f196da883-1" vertex="1">
          <mxGeometry x="800" y="27" width="160" height="723" as="geometry" />
        </mxCell>
        <mxCell id="e00w-yxAYKYn5aTXczRn-14" value="Get shipping order" style="rounded=1;whiteSpace=wrap;html=1;shadow=0;labelBackgroundColor=none;strokeWidth=1;fontFamily=Verdana;fontSize=16;align=center;fontStyle=0" vertex="1" parent="77e6c97f196da883-7">
          <mxGeometry x="33.5" y="65" width="100" height="60" as="geometry" />
        </mxCell>
        <mxCell id="e00w-yxAYKYn5aTXczRn-16" value="Notebook FIFO Pallet" style="shape=document;whiteSpace=wrap;html=1;boundedLbl=1;fontSize=16;align=center;fillColor=#fff2cc;strokeColor=#d6b656;" vertex="1" parent="77e6c97f196da883-7">
          <mxGeometry x="24" y="290" width="120" height="80" as="geometry" />
        </mxCell>
        <mxCell id="e00w-yxAYKYn5aTXczRn-5" style="edgeStyle=orthogonalEdgeStyle;rounded=0;orthogonalLoop=1;jettySize=auto;html=1;entryX=1;entryY=0.5;entryDx=0;entryDy=0;fontSize=16;startArrow=blockThin;startFill=1;dashed=1;" edge="1" parent="77e6c97f196da883-1" source="e00w-yxAYKYn5aTXczRn-4" target="77e6c97f196da883-11">
          <mxGeometry relative="1" as="geometry">
            <Array as="points">
              <mxPoint x="302" y="326" />
              <mxPoint x="302" y="122" />
            </Array>
          </mxGeometry>
        </mxCell>
        <mxCell id="e00w-yxAYKYn5aTXczRn-10" style="edgeStyle=orthogonalEdgeStyle;rounded=0;orthogonalLoop=1;jettySize=auto;html=1;exitX=1;exitY=0.5;exitDx=0;exitDy=0;entryX=0;entryY=0.5;entryDx=0;entryDy=0;startArrow=none;startFill=0;endArrow=classicThin;endFill=1;fontSize=16;" edge="1" parent="77e6c97f196da883-1" source="e00w-yxAYKYn5aTXczRn-2" target="e00w-yxAYKYn5aTXczRn-9">
          <mxGeometry relative="1" as="geometry">
            <Array as="points">
              <mxPoint x="286" y="493" />
            </Array>
          </mxGeometry>
        </mxCell>
        <mxCell id="e00w-yxAYKYn5aTXczRn-17" value="save pallet no" style="edgeStyle=orthogonalEdgeStyle;rounded=0;orthogonalLoop=1;jettySize=auto;html=1;exitX=1;exitY=0.5;exitDx=0;exitDy=0;entryX=0;entryY=0.5;entryDx=0;entryDy=0;dashed=1;startArrow=none;startFill=0;endArrow=classicThin;endFill=1;fontSize=16;" edge="1" parent="77e6c97f196da883-1" source="e00w-yxAYKYn5aTXczRn-9" target="e00w-yxAYKYn5aTXczRn-16">
          <mxGeometry relative="1" as="geometry" />
        </mxCell>
      </root>
    </mxGraphModel>
  </diagram>
</mxfile>
